<svg width="15" height="16" xmlns="http://www.w3.org/2000/svg">
  <path d="M14.383 10.388a2.397 2.397 0 0 0-1.518-2.222l1.494-5.593a.8.8 0 0 0-.144-.696.8.8 0 0 0-.63-.276H4.278L4.12.738A.8.8 0 0 0 3.327 0H.8a.8.8 0 0 0 0 1.6h2.028l1.982 7.4a.8.8 0 0 0 .798.6h6.22a.8.8 0 0 1 0 1.6H6.4a.8.8 0 0 0 0 1.6h5.6a.8.8 0 0 0 .8-.8c0-.442-.358-.8-.8-.8H7.6a1.6 1.6 0 0 1-1.6-1.6c0-.44.18-.84.472-1.126l.13-.13a.8.8 0 0 0 .146-.85L5.05 5.8h8.915a.8.8 0 0 1 .786.667l.8 4a.8.8 0 0 1-.786.933H4.8a.8.8 0 0 0 0 1.6h8.8a2.4 2.4 0 0 0 2.4-2.4 2.4 2.4 0 0 0-1.6-2.252z" fill="#FFF" fill-rule="nonzero"/>
</svg>
